<?xml version="1.0" encoding="utf-8"?>
<!-- Generator: Adobe Illustrator 24.1.2, SVG Export Plug-In . SVG Version: 6.00 Build 0)  -->
<svg version="1.1" id="Warstwa_3" xmlns="http://www.w3.org/2000/svg" xmlns:xlink="http://www.w3.org/1999/xlink" x="0px" y="0px"
	 viewBox="0 0 430 430" style="enable-background:new 0 0 430 430;" xml:space="preserve">
<style type="text/css">
	.st0{fill:#08a88a;}
	.st1{fill:#121331;}
	.st2{fill:none;}
	.st3{fill-opacity:0;}
</style>
<g>
	<path class="st1" d="M214.87,260.53C214.87,260.53,214.87,260.53,214.87,260.53c-11.61,0-22.52-4.53-30.72-12.74L53.48,116.87
		c-2.53-2.53-2.52-6.63,0.01-9.16c2.53-2.53,6.63-2.52,9.16,0.01l130.67,130.92c5.75,5.76,13.41,8.94,21.55,8.94c0,0,0,0,0,0
		c8.15,0,15.8-3.17,21.55-8.94l130.65-130.88c2.52-2.53,6.63-2.54,9.16-0.01c2.53,2.53,2.54,6.63,0.01,9.16L245.59,247.79
		C237.39,256,226.48,260.53,214.87,260.53z"/>
	<path class="st1" d="M374.17,326.89H55.83c-3.58,0-6.47-2.9-6.47-6.47V109.58c0-1.72,0.68-3.36,1.9-4.58
		c1.21-1.21,2.86-1.9,4.58-1.9c0,0,0,0,0,0l318.34,0.03c3.58,0,6.47,2.9,6.47,6.47v210.81C380.65,324,377.75,326.89,374.17,326.89z
		 M62.3,313.95H367.7V116.08L62.3,116.06V313.95z"/>
	<path class="st1" d="M369.34,301.71c-1.51,0-3.02-0.52-4.25-1.59l-78.66-68.47c-5.61-4.88-11.85-9.16-18.53-12.72
		c-3.16-1.68-4.35-5.6-2.68-8.76s5.6-4.35,8.76-2.68c7.55,4.02,14.6,8.85,20.95,14.38l78.66,68.47c2.7,2.35,2.98,6.44,0.63,9.13
		C372.95,300.96,371.15,301.71,369.34,301.71z M62.25,300.38c-1.81,0-3.61-0.76-4.9-2.23c-2.34-2.7-2.05-6.79,0.65-9.13l77.61-67.29
		c6.14-5.33,12.98-10.04,20.32-14c3.15-1.7,7.08-0.52,8.77,2.63c1.7,3.15,0.52,7.08-2.63,8.77c-6.5,3.5-12.55,7.67-17.98,12.38
		L66.49,298.8C65.26,299.86,63.75,300.38,62.25,300.38z"/>
</g>
</svg>
