<svg xmlns="http://www.w3.org/2000/svg" viewBox="0 0 430 430">
  <defs>
    <style>
      .cls-1 {
        isolation: isolate;
      }

      .cls-2, .cls-3 {
        fill: #646e78;
      }

      .cls-3 {
        mix-blend-mode: multiply;
        opacity: 0.5;
      }
    </style>
  </defs>
  <g class="cls-1">
    <g id="Warstwa_1" data-name="Warstwa 1">
      <g>
        <path class="cls-2" d="M346.32,299.54c0,3.56-7.8,12.29-20.21,22.95-5.7,4.88-12.37,10.18-19.7,15.57-25.81,19-78.45,2.7-117.47-36.32l-60.81-60.82c-28.07-28.06-44.45-63.25-44.45-90.48,0-10.62,2.5-20,7.77-27.34,3.72-5.16,7.42-10,11-14.32,14.42-17.61,26.63-27.85,29.48-23.93l8.33,11.45,11,15.15,10.61,14.6,7.36,10.13a5.1,5.1,0,0,1,.84,3c0,4.75-4.1,12.28-10.62,18.8a37.22,37.22,0,0,0-2.69,3c-3.94,4.86-6.11,10.1-6.11,14.27A7.84,7.84,0,0,0,152.7,181l17.66,17.66,31.13,31.13L232.2,260.5l16.67,16.66a5.54,5.54,0,0,0,4.08,1.45c4.53,0,11.09-3.36,17-9.08l.51-.5c6.69-6.68,14.21-11,18.62-11a4.12,4.12,0,0,1,2.47.68l10.35,7.55L318,278.06l16.51,12,11.19,8.16A1.48,1.48,0,0,1,346.32,299.54Z"/>
        <path class="cls-3" d="M170,139.22c0,4.75-4.1,12.28-10.62,18.8a37.22,37.22,0,0,0-2.69,3c-8.86-20.06-31.43-46-54.3-52.23,14.42-17.61,26.63-27.85,29.48-23.93l8.33,11.45,11,15.15,10.61,14.6,7.36,10.13A5.1,5.1,0,0,1,170,139.22Z"/>
        <path class="cls-3" d="M346.32,299.54c0,3.56-9.8,14-22.21,24.65-9.74-23.52-34.39-44.26-55-53.89.17-.17.65-.6.82-.77,6.69-6.68,14.72-11.48,19.13-11.48a4.12,4.12,0,0,1,2.47.68l10.35,7.55L318,278.06l16.51,12,11.19,8.16A1.48,1.48,0,0,1,346.32,299.54Z"/>
      </g>
    </g>
  </g>
</svg>
